<svg width="727" height="145" viewBox="0 0 727 145" fill="none" xmlns="http://www.w3.org/2000/svg">
<path d="M62.2074 84.7216C84.5056 84.7216 102.582 66.9498 102.582 45.0269C102.582 23.1042 84.5056 5.33228 62.2074 5.33228C39.9093 5.33228 21.8333 23.1042 21.8333 45.0269C21.8333 66.9498 39.9093 84.7216 62.2074 84.7216Z" fill="#0096DB"/>
<path d="M0.0156639 0H124.916C124.957 0.408242 125.005 0.673724 125.008 0.939207C125.045 17.7431 125.079 34.5453 125.11 51.3458C125.11 58.7743 125.145 66.2053 124.941 73.6363C124.575 87.0106 120.57 99.2571 112.928 110.376C106.065 120.356 97.0701 128.1 86.6384 134.302C79.4281 138.619 71.7003 142.04 63.6326 144.485C62.8673 144.69 62.0585 144.675 61.3017 144.443C49.3517 140.686 38.3392 135.176 28.5163 127.469C19.1621 120.141 11.5784 111.395 6.60841 100.595C3.42922 93.6702 1.30721 86.4697 0.60412 78.9084C0.255122 75.1866 0.0564228 71.4348 0.0487805 67.6955C-0.00216807 45.7907 -0.0132068 23.8842 0.0156639 1.97609V0ZM63.1078 10.6894C41.7298 11.1252 29.39 26.8613 29.2703 43.3287C29.1379 61.3265 44.1498 76.1659 62.3232 76.2085C81.0136 76.2511 95.8728 61.6996 95.8932 43.3312C95.9161 25.7268 80.8328 10.7095 63.1078 10.6894Z" fill="white"/>
<path d="M58.7099 41.6431C58.4346 41.2223 58.1291 40.8213 57.7954 40.4434C55.304 38.0165 51.5873 38.1292 49.3023 40.7489C49.0712 41.0467 48.7683 41.2834 48.4211 41.4374C48.0737 41.5912 47.6928 41.6576 47.3127 41.6305C45.0201 41.583 42.7274 41.6305 40.4347 41.618C40.3736 41.618 40.3124 41.5579 40.1443 41.4677C40.4421 38.747 41.5418 36.1714 43.3082 34.0568C43.4134 33.9796 43.5347 33.9265 43.6636 33.9015C43.7922 33.8764 43.9249 33.8797 44.052 33.9115C44.7347 34.0693 45.3894 34.3598 46.09 34.4876C46.5103 34.5677 46.9688 34.4425 47.4095 34.4099C47.1897 34.0741 46.9334 33.7625 46.6453 33.4807C46.1152 33.1048 45.566 32.7552 44.9997 32.4338C45.9804 30.9687 47.4452 30.2674 48.8743 29.5461C51.4217 28.2562 54.173 27.9206 57.0032 28.1035C57.1433 28.1035 57.3904 28.1035 57.4082 28.1485C57.7852 29.3056 58.1724 30.4602 58.4807 31.6324C58.6845 32.3837 57.9941 32.534 57.4999 32.7544C57.1715 32.8922 56.8302 32.9978 56.4809 33.07C55.7396 33.2403 55.5078 33.6761 55.7524 34.5126C56.4911 34.4575 57.2477 34.4224 58.0017 34.3448C58.7558 34.2672 59.1914 34.5452 59.3111 35.3291C59.4716 36.391 59.6652 37.4529 59.9123 38.4973C60.1772 39.6845 59.6347 40.5586 58.7099 41.6431Z" fill="white"/>
<path d="M58.9065 19.4301C62.6308 18.7414 66.024 19.4026 69.4681 20.3017C69.0707 21.7844 68.6912 23.222 68.3014 24.6546C67.8811 26.1924 67.8734 26.2024 69.2949 26.8912C74.3515 29.3356 77.4925 33.3454 79.0847 38.5824C79.37 39.5191 79.4082 40.5285 79.5738 41.6004H74.2242C73.9974 40.6587 73.7962 39.6819 73.5313 38.7252C71.8143 32.5189 67.7664 28.4315 61.6603 26.3151C60.6235 25.957 60.0809 25.4987 59.9076 24.4442C59.6427 22.8063 59.2657 21.1883 58.9065 19.4301Z" fill="white"/>
<path d="M59.2938 58.527C58.9855 57.1145 58.7155 55.8647 58.4455 54.6174C58.4327 54.3757 58.3785 54.1375 58.285 53.9136C58.0616 53.6201 57.8135 53.3454 57.5437 53.0921C57.3475 53.3977 56.9934 53.6982 56.9883 54.0063C56.9603 55.2861 56.9883 56.571 57.0953 57.8483C57.1539 58.6247 56.9934 58.9177 56.1018 58.9703C51.6311 59.2358 48.0392 57.3574 44.7811 54.6274C44.5875 54.4621 44.5977 54.0539 44.5263 53.7559C44.5136 53.7008 44.5773 53.6306 44.5977 53.5655C45.5835 50.56 45.581 50.5801 48.778 50.6402C50.4644 50.6702 52.161 50.7253 53.8423 50.6126C56.1706 50.4549 58.0608 49.4555 59.0645 47.2791C59.5332 46.2572 60.3637 46.6504 61.054 46.6705C61.2782 46.6705 61.5966 47.259 61.6832 47.6222C62.017 49.0022 62.3074 50.3972 62.5264 51.7998C62.5698 52.0778 62.2539 52.4284 62.0654 52.7215C61.8769 53.0145 61.6119 53.3376 61.3827 53.6431C61.712 53.7749 62.0312 53.9297 62.3379 54.1065C62.6309 54.2993 63.0385 54.5172 63.1175 54.8003C63.7365 56.9642 63.6269 57.1696 61.4463 57.9284C60.7917 58.1589 60.1191 58.3041 59.2938 58.527Z" fill="white"/>
<path d="M79.1956 46.6398C78.625 50.552 76.3476 53.3621 73.9046 56.2749C74.9414 57.6223 76.0164 59.0148 77.1984 60.5326L75.0458 62.1305C74.5338 61.4232 73.9838 60.7435 73.3976 60.0943C73.12 59.8163 72.6334 59.7412 72.236 59.5759C72.2029 59.9616 72.0857 60.3648 72.1596 60.7304C72.2786 61.3072 72.465 61.8688 72.7149 62.4035C73.0283 63.0797 72.8092 63.4178 72.1392 63.6558C71.1432 63.9964 70.17 64.4071 69.174 64.7503C68.6263 64.9406 68.2875 64.8229 68.155 64.1366C67.806 62.2983 67.3348 60.485 66.9909 58.6467C66.9697 58.444 66.9952 58.2394 67.0652 58.0478C67.1353 57.8562 67.2484 57.6827 67.3959 57.5397C70.6897 55.0351 72.72 51.7591 73.6396 47.8095C73.8536 46.8953 74.2408 46.5572 75.2012 46.6173C76.4928 46.7025 77.7894 46.6398 79.1956 46.6398Z" fill="white"/>
<path d="M70.5894 25.0436L72.6477 21.4019C74.059 22.3587 75.3378 23.1977 76.5733 24.0918C76.7363 24.2095 76.7898 24.6378 76.7185 24.8682C76.5674 25.2948 76.3585 25.6993 76.0969 26.0704C75.7581 26.5713 75.809 26.9595 76.4968 27.2726L78.6341 25.6547C79.164 26.2508 79.7219 26.8218 80.2008 27.4529C80.3409 27.6358 80.2798 27.9889 80.2696 28.2619C80.2472 28.5542 80.2097 28.845 80.1575 29.1335C80.4464 29.138 80.7342 29.1658 81.0185 29.2161C81.3064 29.2913 81.7318 29.3714 81.8261 29.5718C83.0514 32.1765 84.3429 34.7587 85.3695 37.4411C85.8459 38.6934 85.7797 40.1335 85.9835 41.6638C84.4856 41.6638 83.2577 41.6913 82.0349 41.6362C81.8439 41.6362 81.5688 41.2806 81.5025 41.0451C81.2835 40.2437 81.1255 39.4247 80.9752 38.6057C79.8849 32.7 76.3185 28.56 71.295 25.4568C71.1167 25.3466 70.9358 25.2464 70.5894 25.0436Z" fill="white"/>
<path d="M61.9059 33.7696L62.9529 32.7077C62.6192 32.4898 62.2702 32.2895 61.9569 32.044C61.7327 31.908 61.5554 31.7092 61.4474 31.473C61.2538 30.7441 61.1366 29.9953 60.9226 28.9058C62.0409 29.3917 63.0039 29.6797 63.8216 30.1906C67.0856 32.1863 69.5589 35.218 70.8321 38.7838C71.818 41.4686 71.6345 41.6665 68.784 41.6665C68.2898 41.6665 67.793 41.6339 67.3039 41.6665C66.2009 41.7542 65.1972 41.7066 64.7565 40.4418C64.7111 40.3283 64.6426 40.2251 64.555 40.139C64.4674 40.0528 64.3624 39.9852 64.247 39.9409C62.9733 39.5476 62.772 38.4782 62.5682 37.4163C62.3211 36.1415 62.0995 34.8466 61.9059 33.7696Z" fill="white"/>
<path d="M45.3195 58.7175C45.6512 58.8034 45.9737 58.9209 46.2825 59.0683C51.6168 62.2505 57.1523 62.5261 62.8764 60.2134C63.233 60.068 63.5948 59.9453 64.1985 59.7122C64.6163 61.6842 65.0162 63.5785 65.4264 65.5154C59.9163 66.4075 54.8902 65.4453 50.3023 62.6339C48.5064 61.5339 46.955 60.0455 45.2915 58.735L45.3195 58.7175Z" fill="white"/>
<path d="M41.0295 32.0482C41.6562 30.9737 42.1759 29.8191 42.9274 28.8399C45.8773 24.9904 49.6118 22.1302 54.2583 20.4797C54.8111 20.2843 55.3945 20.1741 56.0848 19.9788C56.4415 21.7946 56.7803 23.5077 57.1038 25.1807C55.2493 25.351 53.4355 25.351 51.6982 25.7067C47.7955 26.5031 44.4635 28.354 41.8931 31.4196C41.6547 31.67 41.3994 31.9042 41.1289 32.1208L41.0295 32.0482Z" fill="white"/>
<path d="M85.5296 46.6424C84.7321 51.2466 82.6581 55.0368 79.4987 58.4161L76.8259 56.2116C76.9477 55.9218 77.096 55.6435 77.2693 55.38C79.0617 53.1775 80.3013 50.5911 80.8873 47.8298C81.0962 46.8779 81.5421 46.5046 82.5536 46.6098C83.4862 46.72 84.4391 46.6424 85.5296 46.6424Z" fill="white"/>
<path d="M66.2359 55.0131C65.6371 52.0734 65.1021 49.4368 64.5466 46.7026H71.1279C70.3635 49.9331 68.9443 52.6899 66.2359 55.0131Z" fill="white"/>
<path d="M57.4099 46.6155C56.964 47.8685 56.1792 48.5426 55.1167 48.8283C52.393 49.5676 49.6336 49.4748 46.7468 49.0789C47.0398 48.3271 47.2564 47.6755 47.5596 47.0741C47.6355 46.9533 47.7382 46.8511 47.86 46.7746C47.9818 46.6982 48.1194 46.6498 48.2628 46.633C51.2668 46.6055 54.2632 46.6155 57.4099 46.6155Z" fill="white"/>
<path d="M40.3135 46.6199C41.9543 46.6199 43.5035 46.6199 45.0501 46.6199C45.2564 46.6199 45.4628 46.6574 45.8679 46.7001C45.1876 47.5772 45.6717 49.1459 44.2959 49.2838C41.1798 49.602 40.8664 49.3038 40.3135 46.6199Z" fill="#0096DB"/>
<path d="M62.1318 44.1695C61.133 44.1695 60.5164 43.5411 60.5215 42.5271C60.5161 42.3111 60.5546 42.096 60.6349 41.8948C60.7149 41.6935 60.8351 41.51 60.9885 41.355C61.1419 41.2 61.3251 41.0764 61.5274 40.992C61.73 40.9074 61.9476 40.8633 62.1674 40.8623C62.6281 40.8766 63.0653 41.0653 63.3871 41.3893C63.7092 41.7133 63.8911 42.1469 63.8949 42.5997C63.8674 43.0356 63.6677 43.4437 63.3382 43.7368C63.0088 44.03 62.5759 44.1852 62.1318 44.1695Z" fill="white"/>
<path d="M56.5338 41.7059H50.9487C52.1157 39.7376 55.056 39.7977 56.5338 41.7059Z" fill="white"/>
<path d="M41.1368 32.1336L40.9109 32.3338L41.0327 32.0485C41.0657 32.0785 41.1013 32.106 41.1368 32.1336Z" fill="#0096DB"/>
<path d="M45.2917 58.7443L45.1555 58.6363L45.3174 58.7211L45.2917 58.7443Z" fill="#0096DB"/>
<path d="M40.7771 106.016C40.7771 105.219 40.7771 104.425 40.7771 103.629C40.7771 100.48 40.7771 97.3305 40.7771 94.1815V93.876H44.8886V98.2865L45.8694 97.2296L48.1621 94.7401C48.3965 94.4896 48.6257 94.2266 48.8677 93.9887C48.9352 93.9206 49.0259 93.8795 49.1225 93.8735C50.549 93.8735 51.9756 93.8735 53.4021 93.8735C53.4251 93.8735 53.448 93.8735 53.5193 93.891L48.5722 99.2433L53.7843 106.081H53.5295C52.0775 106.081 50.6254 106.081 49.1734 106.081C49.1006 106.084 49.0282 106.068 48.9633 106.035C48.8986 106.002 48.8435 105.953 48.804 105.893C47.8819 104.681 46.9564 103.472 46.0273 102.266C45.9789 102.201 45.9254 102.141 45.8439 102.046C45.6147 102.296 45.4134 102.547 45.1816 102.755C45.0822 102.846 45.0053 102.958 44.9564 103.082C44.9075 103.207 44.8876 103.34 44.8988 103.473C44.9167 104.245 44.8988 105.014 44.8988 105.785V106.066H40.823L40.7771 106.016Z" fill="#0096DB"/>
<path d="M61.3954 93.8679H65.5409V94.176C65.5409 96.4807 65.5409 98.7878 65.5714 101.092C65.5526 101.432 65.6278 101.769 65.7895 102.069C65.9511 102.37 66.1929 102.621 66.4887 102.796C67.3499 103.297 68.9169 103.021 69.1564 101.704C69.2514 101.226 69.3059 100.742 69.3194 100.256C69.3347 98.2217 69.3194 96.1876 69.3194 94.151V93.8729H73.4471V94.1385C73.4471 96.2652 73.4471 98.397 73.4471 100.514C73.4685 101.496 73.2766 102.471 72.884 103.375C72.5935 104.01 72.1655 104.576 71.6301 105.032C71.0946 105.489 70.4642 105.825 69.7832 106.017C68.8274 106.316 67.8223 106.43 66.8225 106.356C65.6897 106.315 64.5885 105.978 63.6325 105.379C63.0801 105.014 62.6074 104.544 62.2426 103.996C61.8777 103.449 61.6278 102.836 61.5075 102.192C61.4115 101.734 61.3618 101.267 61.3597 100.799C61.3419 98.5448 61.3597 96.2903 61.3597 94.0357C61.3597 93.9932 61.3597 93.9531 61.3597 93.913L61.3954 93.8679Z" fill="#0096DB"/>
<path d="M86.1244 93.9082V97.0545H82.5089V106.05H78.3278V97.0696H74.6919V93.8732C74.7505 93.8732 74.8065 93.8606 74.8626 93.8606H85.9512C85.9945 93.8606 86.0352 93.8606 86.076 93.8606L86.1244 93.9082Z" fill="#0096DB"/>
<path d="M58.9398 106.06H54.8351L54.7969 106.018V103.583V93.876H58.9755C58.9755 93.9336 58.9933 93.9962 58.9933 94.0589V105.895C58.9933 105.935 58.9933 105.978 58.9933 106.018L58.9398 106.06Z" fill="#0096DB"/>
<path d="M142.748 58.4237V35.8326H148.301V45.385H148.604L156.201 35.8326H162.742L154.591 45.9134L162.882 58.4237H156.246L150.522 49.5425L148.301 52.2975V58.4212L142.748 58.4237Z" fill="white"/>
<path d="M170.896 35.8326V58.4237H165.343V35.8326H170.896Z" fill="white"/>
<path d="M174.782 35.8326H181.66L187.491 49.818H187.759L193.605 35.8326H200.483V58.4237H195.07V44.5459H194.879L189.358 58.2809H185.902L180.381 44.4683H180.19V58.4237H174.782V35.8326Z" fill="white"/>
<path d="M203.223 35.8327H209.426L214.284 45.2849H214.488L219.336 35.8327H225.539L217.132 50.8775V58.4237H211.627V50.8775L203.223 35.8327Z" fill="white"/>
<path d="M248.479 47.1281C248.479 49.6126 247.993 51.7197 247.022 53.4496C246.119 55.1074 244.75 56.4741 243.078 57.3868C241.369 58.2959 239.45 58.759 237.507 58.7317C235.56 58.7615 233.638 58.2939 231.931 57.3742C230.264 56.4586 228.899 55.0921 227.997 53.4371C227.029 51.7122 226.545 49.6109 226.545 47.1331C226.545 44.6554 227.029 42.5481 227.997 40.8116C228.895 39.1541 230.261 37.7869 231.931 36.8745C233.651 35.9894 235.563 35.527 237.504 35.527C239.446 35.527 241.358 35.9894 243.078 36.8745C244.75 37.7872 246.119 39.1539 247.022 40.8116C247.993 42.5365 248.479 44.6419 248.479 47.1281ZM242.803 47.1281C242.838 45.8563 242.623 44.59 242.169 43.3988C241.813 42.4654 241.177 41.6609 240.344 41.0929C239.51 40.5249 238.521 40.2206 237.507 40.2206C236.493 40.2206 235.503 40.5249 234.67 41.0929C233.837 41.6609 233.201 42.4654 232.845 43.3988C232.391 44.59 232.175 45.8563 232.211 47.1281C232.173 48.3992 232.386 49.6657 232.838 50.8574C233.192 51.7919 233.828 52.5976 234.662 53.1666C235.495 53.7354 236.485 54.0404 237.499 54.0404C238.514 54.0404 239.504 53.7354 240.337 53.1666C241.17 52.5976 241.807 51.7919 242.161 50.8574C242.618 49.6667 242.836 48.4002 242.803 47.1281Z" fill="white"/>
<path d="M264.88 35.8326V58.4237H259.326V35.8326H264.88Z" fill="white"/>
<path d="M289.391 35.4962V58.0872H284.681L275.535 45.0485H275.39V58.0872H269.837V35.4962H274.616L283.659 48.5198H283.85V35.4962H289.391Z" fill="white"/>
<path d="M291.464 40.2657V35.8327H310.886V40.2657H303.908V58.4237H298.431V40.2657H291.464Z" fill="white"/>
<path d="M314.025 58.4237V35.8326H330.048V40.2657H319.578V44.8991H329.228V49.3447H319.578V53.9881H330.048V58.4237H314.025Z" fill="white"/>
<path d="M333.933 58.4244V35.8333H343.425C344.963 35.795 346.489 36.106 347.885 36.7424C349.093 37.3092 350.104 38.2156 350.787 39.3472C351.49 40.5671 351.844 41.9524 351.806 43.3545C351.806 44.9206 351.459 46.2497 350.764 47.3417C350.056 48.4505 349.021 49.3233 347.801 49.8463C346.367 50.4469 344.815 50.7381 343.256 50.7003H337.255V46.39H342.225C342.941 46.4088 343.654 46.2983 344.329 46.0644C344.851 45.874 345.299 45.5227 345.603 45.0626C345.913 44.5454 346.066 43.9503 346.041 43.3495C346.066 42.7408 345.913 42.1383 345.603 41.6113C345.297 41.1384 344.846 40.775 344.314 40.5744C343.644 40.3242 342.93 40.206 342.215 40.2263H339.476V58.4168L333.933 58.4244ZM346.871 48.0981L352.593 58.4244H346.532L340.928 48.0981H346.871Z" fill="white"/>
<path d="M374.815 35.8326V58.4237H370.102L360.972 45.385H360.825V58.4237H355.271V35.8326H360.05L369.094 48.8563H369.285V35.8326H374.815Z" fill="white"/>
<path d="M383.674 58.4237H377.703L385.457 35.8327H392.845L400.599 58.4237H394.631L389.248 41.523H389.069L383.674 58.4237ZM382.877 49.5326H395.359V53.6876H382.877V49.5326Z" fill="white"/>
<path d="M399.869 40.2657V35.8326H419.29V40.2657H412.323V58.4237H406.846V40.2657H399.869Z" fill="white"/>
<path d="M427.982 35.8327V58.4237H422.428V35.8327H427.982Z" fill="white"/>
<path d="M453.561 47.1281C453.561 49.6126 453.075 51.7197 452.102 53.4496C451.2 55.1074 449.829 56.4741 448.158 57.3868C446.439 58.2724 444.526 58.7337 442.582 58.7315C440.641 58.7295 438.728 58.2636 437.011 57.3743C435.345 56.4578 433.979 55.0916 433.078 53.4371C432.11 51.7122 431.625 49.6109 431.625 47.1331C431.625 44.6554 432.11 42.5481 433.078 40.8116C433.977 39.1549 435.342 37.7879 437.011 36.8745C438.73 35.9894 440.643 35.527 442.585 35.527C444.526 35.527 446.439 35.9894 448.158 36.8745C449.829 37.7872 451.2 39.1539 452.102 40.8116C453.075 42.5365 453.561 44.6419 453.561 47.1281ZM447.883 47.1281C447.919 45.8563 447.702 44.59 447.249 43.3989C446.892 42.4687 446.26 41.6657 445.433 41.0947C444.808 40.6694 444.095 40.3894 443.346 40.2764C442.597 40.1635 441.83 40.2203 441.107 40.4425C440.381 40.6646 439.719 41.0466 439.168 41.559C438.616 42.0712 438.193 42.7006 437.925 43.3989C437.472 44.59 437.255 45.8563 437.291 47.1281C437.255 48.3997 437.472 49.6662 437.925 50.8574C438.279 51.7919 438.916 52.5976 439.749 53.1666C440.582 53.7354 441.573 54.0404 442.587 54.0404C443.601 54.0404 444.592 53.7354 445.425 53.1666C446.258 52.5976 446.895 51.7919 447.249 50.8574C447.702 49.6662 447.919 48.3997 447.883 47.1281Z" fill="white"/>
<path d="M476.758 35.8327V58.4237H472.04L462.897 45.385H462.75V58.4237H457.196V35.8327H461.975L471.019 48.8563H471.21V35.8327H476.758Z" fill="white"/>
<path d="M485.616 58.4237H479.647L487.402 35.8326H494.789L502.543 58.4237H496.575L491.177 41.5229H490.999L485.616 58.4237ZM484.821 49.5325H497.303V53.6876H484.821V49.5325Z" fill="white"/>
<path d="M505.435 58.4237V35.8326H510.988V53.9881H520.549V58.4237H505.435Z" fill="white"/>
<path d="M544.944 35.8326H550.5V50.4041C550.553 51.9361 550.138 53.4486 549.31 54.7477C548.482 56.0466 547.277 57.073 545.853 57.6948C544.241 58.3663 542.508 58.7122 540.758 58.7122C539.008 58.7122 537.276 58.3663 535.664 57.6948C534.273 57.0712 533.093 56.0681 532.265 54.8046C531.435 53.4862 531.014 51.9589 531.053 50.4091V35.8326H536.606V49.9307C536.588 50.6571 536.764 51.3754 537.116 52.0145C537.457 52.6194 537.964 53.117 538.58 53.4496C539.255 53.7902 540.004 53.9681 540.764 53.9681C541.525 53.9681 542.274 53.7902 542.949 53.4496C543.563 53.114 544.07 52.6171 544.414 52.0145C544.773 51.3774 544.954 50.6588 544.941 49.9307L544.944 35.8326Z" fill="white"/>
<path d="M573.936 35.8326V58.4237H569.223L560.08 45.385H559.925V58.4237H554.371V35.8326H559.161L568.204 48.8563H568.395V35.8326H573.936Z" fill="white"/>
<path d="M583.373 35.8326V58.4237H577.817V35.8326H583.373Z" fill="white"/>
<path d="M592.478 35.8326L597.626 52.3777H597.817L602.955 35.8326H609.171L601.419 58.4237H594.031L586.277 35.8326H592.478Z" fill="white"/>
<path d="M612.055 58.4237V35.8326H628.075V40.2657H617.608V44.8991H627.258V49.3447H617.608V53.9881H628.075V58.4237H612.055Z" fill="white"/>
<path d="M631.962 58.4243V35.8333H641.454C642.992 35.7952 644.518 36.1062 645.914 36.7424C647.122 37.3084 648.131 38.2151 648.813 39.3471C649.519 40.5666 649.87 41.9524 649.832 43.3544C649.832 44.9205 649.486 46.2497 648.79 47.3417C648.082 48.4504 647.048 49.3233 645.828 49.8462C644.393 50.4468 642.842 50.7381 641.283 50.7003H635.281V46.3899H640.251C640.967 46.4087 641.68 46.2983 642.356 46.0643C642.878 45.8725 643.324 45.5216 643.629 45.0625C643.94 44.5448 644.093 43.95 644.067 43.3494C644.09 42.7411 643.938 42.1387 643.629 41.6113C643.324 41.1384 642.87 40.775 642.338 40.5744C641.668 40.3242 640.957 40.206 640.241 40.2262H637.503V58.4168L631.962 58.4243ZM644.898 48.098L650.612 58.4243H644.554L638.95 48.098H644.898Z" fill="white"/>
<path d="M665.706 42.6049C665.688 42.2385 665.589 41.8803 665.418 41.5542C665.247 41.2281 665.008 40.9418 664.715 40.7139C664.126 40.2599 663.291 40.0334 662.206 40.0352C661.599 40.0194 660.996 40.1126 660.423 40.3107C659.997 40.4545 659.623 40.7152 659.345 41.0621C659.105 41.3791 658.976 41.7638 658.976 42.1591C658.955 42.4706 659.026 42.7814 659.182 43.0532C659.35 43.3262 659.582 43.5574 659.854 43.7294C660.188 43.9443 660.55 44.1169 660.927 44.2428C661.388 44.4024 661.862 44.5311 662.341 44.6285L664.315 45.0719C665.354 45.2832 666.363 45.6083 667.329 46.0411C668.136 46.4043 668.877 46.8922 669.527 47.4862C670.11 48.03 670.571 48.6877 670.88 49.4172C671.196 50.1967 671.353 51.0282 671.351 51.8667C671.379 53.1728 670.994 54.4554 670.251 55.5384C669.466 56.6066 668.378 57.4236 667.125 57.8876C665.767 58.4336 664.129 58.7059 662.216 58.7041C660.501 58.7399 658.795 58.4517 657.19 57.8551C655.837 57.3494 654.676 56.4493 653.858 55.2754C653.066 54.12 652.658 52.6599 652.635 50.8949H657.954C657.972 51.5451 658.178 52.1768 658.548 52.7157C658.914 53.2124 659.419 53.5948 660 53.8177C660.685 54.0805 661.416 54.208 662.15 54.1934C662.799 54.2087 663.449 54.1078 664.063 53.8954C664.537 53.7336 664.959 53.4478 665.28 53.0689C665.561 52.7243 665.716 52.296 665.716 51.8542C665.719 51.4529 665.576 51.0637 665.314 50.7572C664.98 50.4038 664.565 50.1321 664.106 49.9632C663.436 49.6993 662.743 49.4906 662.038 49.3396L659.635 48.7886C657.646 48.3395 656.079 47.6132 654.935 46.6096C653.792 45.6061 653.223 44.2479 653.229 42.5347C653.195 41.2204 653.598 39.931 654.375 38.8606C655.193 37.7703 656.298 36.92 657.572 36.4011C659.044 35.7905 660.631 35.4894 662.229 35.517C663.823 35.4812 665.405 35.7845 666.868 36.4061C668.103 36.9358 669.163 37.7976 669.924 38.8931C670.661 39.9931 671.048 41.2832 671.035 42.5999L665.706 42.6049Z" fill="white"/>
<path d="M680.121 35.8327V58.4237H674.56V35.8327H680.121Z" fill="white"/>
<path d="M683.26 40.2657V35.8326H702.681V40.2657H695.704V58.4237H690.227V40.2657H683.26Z" fill="white"/>
<path d="M704.671 35.8326H710.877L715.735 45.2848H715.936L720.794 35.8326H726.999L718.593 50.8775V58.4237H713.075V50.8775L704.671 35.8326Z" fill="white"/>
<path d="M148.301 80.1631V102.754H142.748V80.1631H148.301Z" fill="white"/>
<path d="M171.751 80.1631V102.754H167.038L157.893 89.7154H157.747V102.754H152.194V80.1631H156.973L166.016 93.1867H166.207V80.1631H171.751Z" fill="white"/>
<path d="M182.092 84.5963V80.1633H201.513V84.5963H194.546V102.754H189.072V84.5963H182.092Z" fill="white"/>
<path d="M206.753 102.754H200.784L208.538 80.1631H215.926L223.68 102.754H217.714L212.319 85.8534H212.14L206.753 102.754ZM205.958 93.863H218.44V98.018H205.958V93.863Z" fill="white"/>
<path d="M238.277 86.9354C238.258 86.569 238.159 86.2106 237.988 85.8845C237.816 85.5587 237.576 85.2722 237.283 85.0445C236.698 84.5912 235.859 84.3658 234.777 84.3658C234.166 84.3487 233.557 84.4421 232.981 84.6413C232.556 84.785 232.182 85.0457 231.903 85.3926C231.664 85.7102 231.535 86.0946 231.534 86.4896C231.512 86.8012 231.584 87.112 231.74 87.3837C231.91 87.6567 232.141 87.8879 232.415 88.06C232.749 88.2746 233.108 88.4469 233.485 88.5734C233.947 88.7322 234.42 88.8612 234.899 88.9591L236.873 89.4024C237.912 89.6118 238.923 89.9369 239.887 90.3717C240.694 90.7341 241.436 91.2222 242.085 91.8168C242.669 92.3598 243.13 93.0177 243.438 93.7478C243.754 94.5267 243.914 95.3585 243.909 96.1973C243.938 97.5036 243.553 98.7865 242.809 99.8689C242.025 100.936 240.938 101.753 239.686 102.218C238.327 102.764 236.691 103.036 234.777 103.035C233.062 103.071 231.355 102.783 229.751 102.186C228.398 101.679 227.235 100.779 226.416 99.606C225.625 98.4506 225.217 96.9904 225.193 95.2255H230.512C230.531 95.8759 230.738 96.5076 231.108 97.0463C231.475 97.5435 231.979 97.9261 232.561 98.1483C233.244 98.4105 233.974 98.5383 234.708 98.524C235.359 98.5395 236.007 98.4383 236.621 98.2259C237.096 98.0639 237.517 97.7784 237.839 97.3994C238.12 97.0548 238.275 96.6268 238.277 96.1847C238.278 95.7835 238.135 95.3945 237.872 95.0877C237.539 94.7338 237.126 94.4619 236.667 94.2938C235.996 94.0291 235.303 93.8204 234.596 93.6702L232.196 93.1192C230.206 92.6716 228.638 91.9453 227.494 90.9402C226.349 89.9351 225.781 88.5767 225.789 86.8653C225.756 85.5512 226.158 84.2618 226.933 83.1911C227.753 82.1034 228.858 81.2548 230.13 80.7367C231.603 80.126 233.189 79.825 234.787 79.8526C236.38 79.815 237.963 80.1165 239.426 80.7367C240.663 81.2659 241.723 82.1279 242.483 83.2237C243.217 84.3242 243.604 85.614 243.593 86.9304L238.277 86.9354Z" fill="white"/>
<path d="M247.134 102.754V80.1633H252.687V89.2297H261.741V80.1633H267.284V102.754H261.741V93.6753H252.687V102.754H247.134Z" fill="white"/>
<path d="M271.173 102.754V80.1631H276.729V89.7154H277.03L284.626 80.1631H291.173L283.021 90.2539L291.313 102.777H284.672L278.946 93.873L276.724 96.628V102.752L271.173 102.754Z" fill="white"/>
<path d="M293.765 102.754V80.1631H309.789V84.5961H299.324V89.2296H308.974V93.6751H299.324V98.3186H309.794V102.754H293.765Z" fill="white"/>
<path d="M333.232 80.1633V102.754H328.52L319.374 89.7156H319.229V102.754H313.676V80.1633H318.455L327.498 93.1869H327.689V80.1633H333.232Z" fill="white"/>
<path d="M336.37 84.5963V80.1633H355.792V84.5963H348.824V102.754H343.35V84.5963H336.37Z" fill="white"/>
</svg>
