<svg width="60" height="60" viewBox="0 0 60 60" fill="none" xmlns="http://www.w3.org/2000/svg">
<path d="M53.3572 25.6234L45.983 29.972L31.6631 38.4157C30.324 39.1948 28.6813 39.1948 27.3422 38.4157L13.0223 29.972L5.63025 25.6234C5.43819 25.5077 5.2791 25.3433 5.1686 25.1464C5.0581 24.9494 5 24.7266 5 24.5C5 24.2734 5.0581 24.0506 5.1686 23.8537C5.2791 23.6567 5.43819 23.4923 5.63025 23.3766L27.3422 10.5843C28.6813 9.80522 30.324 9.80522 31.6631 10.5843L53.3572 23.3766C54.2143 23.8839 54.2143 25.1161 53.3572 25.6234Z" fill="#0096DB"/>
<path d="M32.998 40.7752C31.9207 41.377 30.7131 41.6927 29.4893 41.6927C28.2656 41.6927 27.0579 41.377 25.9949 40.7839L13 33.41V39.9605C13 41.4258 13.7861 42.7691 15.0902 43.5018L24.1477 48.613C25.7709 49.5218 27.6093 50 29.4804 50C31.3514 50 33.1899 49.5218 34.8131 48.613L43.8884 43.5018C45.1747 42.7691 45.9786 41.4258 45.9786 39.9605V33.41L32.998 40.7752ZM53.7499 42.2754V29L50.5324 30.8247V42.2736C50.0265 42.6093 49.6442 43.0944 49.4414 43.6578C49.2387 44.2212 49.2262 44.8333 49.4058 45.4041C49.5855 45.9749 49.9477 46.4745 50.4395 46.8295C50.9313 47.1846 51.5267 47.3763 52.1382 47.3766C52.7498 47.377 53.3454 47.1859 53.8376 46.8314C54.3298 46.4769 54.6926 45.9777 54.8729 45.4071C55.0532 44.8364 55.0414 44.2244 54.8393 43.6607C54.6372 43.0971 54.2553 42.6116 53.7499 42.2754Z" fill="#0096DB"/>
</svg>
