<svg width="60" height="60" viewBox="0 0 60 60" fill="none" xmlns="http://www.w3.org/2000/svg">
<path d="M21.2575 44.6715C21.2307 44.9376 21.2537 45.2155 21.3508 45.4908C21.5879 46.1547 22.1443 46.6955 22.8033 46.8994C23.4157 47.0927 24.025 46.9641 24.2098 46.7633L25.4875 45.3939C25.8571 44.9991 25.9505 44.3682 25.7333 43.7559C25.1987 42.7327 24.4824 42.3635 23.5651 42.1981L21.2575 44.6715ZM19.5486 37.8244L17.3156 40.2164C16.862 40.7093 16.7319 41.4671 16.9852 42.1931C17.254 42.9602 17.8957 43.5843 18.6636 43.8174C19.3905 44.035 20.1199 43.8659 20.5766 43.3804L22.644 41.1656C23.1008 40.6739 23.2278 39.9199 22.9745 39.1938C22.7056 38.423 22.0603 37.8014 21.2961 37.5695C20.6862 37.375 19.9705 37.3675 19.5486 37.8244ZM15.1219 33.8883L13.0601 36.0994C12.6058 36.5886 12.4789 37.3489 12.7297 38.0774C12.9985 38.842 13.6402 39.4661 14.4081 39.6992C15.1337 39.9199 15.8706 39.7477 16.1002 39.5046L18.3892 37.0511C18.846 36.5582 18.9729 35.8004 18.7196 35.0756C18.4495 34.306 17.8079 33.6844 17.0399 33.4538C16.3336 33.2238 15.552 33.4283 15.1219 33.8883ZM11.0886 29.5295L8.80341 31.9843C8.34662 32.476 8.21966 33.23 8.47295 33.9523C8.73931 34.7256 9.38466 35.3472 10.1526 35.5804C10.8783 35.7967 11.6139 35.6288 11.841 35.3827L14.1324 32.9292V32.9267C14.5892 32.4412 14.7162 31.6859 14.4629 30.9611C14.1978 30.1878 13.5524 29.5662 12.7845 29.3356C12.1976 29.1335 11.4875 29.0987 11.0886 29.5295ZM40.7563 14.8898C39.2783 15.7153 37.224 15.8632 35.2232 16.0068C33.7097 16.11 32.1483 16.2194 31.0262 16.6334L24.7873 18.9328C24.7455 18.949 24.7018 18.9601 24.6573 18.9657C24.3561 19.013 24.0773 19.0534 23.8271 19.0882C22.308 19.302 22.1325 19.3673 21.9576 19.8167C21.7983 20.232 21.9732 20.8306 22.4051 21.3391C22.7573 21.7568 24.1358 23.061 26.9717 22.3902L30.5246 21.9215C32.5142 21.6654 34.1092 22.9609 35.3831 24.0064L44.9378 31.6412L44.9452 31.6374C46.834 30.848 48.8018 29.8211 50.4746 27.8083L40.7563 14.8898Z" fill="#0096DB"/>
<path d="M27.6095 14.426C27.0432 14.4782 26.3941 14.5497 25.7133 14.6206C21.9476 15.0221 19.8597 15.18 18.7973 14.9836L9.02116 27.6938C9.36495 28.0128 9.66672 28.3742 9.91918 28.7692C10.7363 27.9338 11.971 27.6354 13.1733 27.9984C14.3533 28.354 15.3384 29.3094 15.7504 30.4948C15.9253 30.9965 15.9801 31.5112 15.9352 32.0041C16.4354 31.9324 16.9452 31.971 17.4288 32.1173C18.6057 32.4703 19.5945 33.4283 20.0034 34.6137C20.1808 35.1128 20.2368 35.6263 20.1945 36.1192C20.6949 36.0472 21.205 36.0871 21.6881 36.2361C22.8624 36.5917 23.8469 37.5471 24.2589 38.7263C24.5178 39.4741 24.5278 40.2437 24.3174 40.9337C24.4375 40.9567 24.5607 40.9859 24.6833 41.0244C25.7369 41.3508 26.6319 42.2155 27.0171 43.2815C27.3843 44.3134 27.2249 45.3975 26.6219 46.1758L28.3563 47.5614C28.7808 47.8977 29.3994 47.9344 29.9769 47.6546C30.6029 47.3513 31.0759 46.7353 31.2153 46.0459C31.2692 45.7722 31.26 45.49 31.1886 45.2204L28.9886 43.4624C28.8462 43.3464 28.7544 43.1797 28.7326 42.9974C28.7108 42.8152 28.7606 42.6315 28.8716 42.4852C28.9261 42.4136 28.9943 42.3536 29.0723 42.3087C29.1503 42.2638 29.2365 42.2349 29.3259 42.2237C29.4152 42.2125 29.5059 42.2193 29.5925 42.2436C29.6792 42.2679 29.7602 42.3093 29.8306 42.3653L32.4755 44.4825C32.7382 44.6926 33.4906 44.7486 34.1807 44.4241C34.9064 44.0778 35.4546 43.3642 35.6065 42.5679C35.7521 41.8151 35.5187 41.0854 34.9997 40.6676L32.6075 38.7555C32.4641 38.6407 32.3716 38.4743 32.3497 38.292C32.3278 38.1098 32.3784 37.9263 32.4905 37.7808C32.5441 37.7085 32.6119 37.6478 32.6896 37.6024C32.7674 37.5569 32.8536 37.5277 32.943 37.5165C33.0325 37.5053 33.1232 37.5123 33.2098 37.5371C33.2964 37.5619 33.3771 37.604 33.447 37.6609L36.9246 40.4389C37.4473 40.8541 38.1985 40.9113 38.8924 40.5881C39.6118 40.2443 40.1601 39.5319 40.3157 38.7269C40.4613 37.9742 40.2279 37.2469 39.7033 36.8254L36.2245 34.0511C36.0809 33.9348 35.9884 33.7671 35.9665 33.5837C35.9447 33.4004 35.9952 33.2157 36.1075 33.069C36.1624 32.9978 36.2311 32.9382 36.3093 32.8938C36.3876 32.8494 36.4739 32.8209 36.5633 32.8102C36.6527 32.7994 36.7433 32.8065 36.8299 32.8311C36.9165 32.8557 36.9974 32.8972 37.0677 32.9533C37.0677 32.9533 42.35 37.1723 42.3538 37.1723C42.6164 37.3787 43.3651 37.4371 44.0521 37.1089C44.779 36.7701 45.3235 36.0577 45.4816 35.2552C45.6247 34.5012 45.3914 33.7689 44.8692 33.3549L34.5305 25.0905C33.3443 24.1189 32.1189 23.1125 30.6957 23.3033L27.2144 23.7571C24.8675 24.3203 22.6539 23.7633 21.3738 22.2516C20.6021 21.3409 20.3395 20.2145 20.6861 19.3088C21.1722 18.0525 22.1032 17.9226 23.6397 17.7063C23.8693 17.6771 24.1164 17.641 24.3884 17.5981L30.5631 15.323C30.9645 15.1738 31.4089 15.0706 31.8688 14.9792C30.2812 14.3657 29.1305 14.329 27.6095 14.426ZM14.1909 12.0172C13.0663 11.9321 12.0395 12.7787 10.5614 14.7014L6.78139 19.6196C5.41413 21.3937 4.90195 22.4971 5.01522 23.432C5.10608 24.2003 5.64128 24.9544 6.17213 25.3795L7.96506 26.8099L17.7014 14.1519L16.4412 13.1442C15.5749 12.4542 14.8655 12.0694 14.1909 12.0172ZM45.4119 12.0042C44.7373 12.0464 44.0216 12.4231 43.1485 13.1032L41.8746 14.0903L51.4759 26.8515L52.7168 25.8874C53.7903 25.0557 54.338 24.3116 54.4382 23.5439C54.562 22.6115 54.066 21.4994 52.7206 19.7023L49.0021 14.7368C47.5533 12.7942 46.5396 11.9321 45.4119 12.0042Z" fill="#0096DB"/>
</svg>
