<svg width="60" height="60" viewBox="0 0 60 60" fill="none" xmlns="http://www.w3.org/2000/svg">
<path d="M47.7823 31.675H43.9155C44.3096 32.7436 44.525 33.8968 44.525 35.0987V49.5703C44.525 50.0715 44.4369 50.5525 44.2766 50.9998H50.6693C53.0573 50.9998 55 49.076 55 46.7114V38.8222C55.0001 34.8813 51.7622 31.675 47.7823 31.675ZM15.4751 35.0988C15.4751 33.8968 15.6905 32.7437 16.0846 31.6751H12.2178C8.2379 31.6751 5 34.8814 5 38.8224V46.7116C5 49.0762 6.94268 51 9.33067 51H15.7235C15.5589 50.541 15.4749 50.0575 15.4751 49.5704V35.0988ZM34.4201 27.9514H25.58C21.6001 27.9514 18.3622 31.1577 18.3622 35.0988V49.5704C18.3622 50.3598 19.0085 50.9999 19.8058 50.9999H40.1943C40.9916 50.9999 41.6379 50.3599 41.6379 49.5704V35.0988C41.6379 31.1577 38.4 27.9514 34.4201 27.9514ZM30 9C25.2137 9 21.3198 12.8559 21.3198 17.5957C21.3198 20.8106 23.1117 23.6184 25.758 25.0925C27.0131 25.7917 28.4602 26.1912 30 26.1912C31.5399 26.1912 32.987 25.7917 34.2421 25.0925C36.8885 23.6184 38.6803 20.8105 38.6803 17.5957C38.6803 12.856 34.7864 9 30 9ZM14.7576 17.0118C11.178 17.0118 8.26592 19.8955 8.26592 23.4401C8.26592 26.9848 11.178 29.8685 14.7576 29.8685C15.6373 29.8692 16.5078 29.6919 17.3157 29.3474C18.6738 28.7685 19.7935 27.7436 20.4864 26.4599C20.9883 25.531 21.2504 24.4936 21.2493 23.4401C21.2493 19.8956 18.3372 17.0118 14.7576 17.0118ZM45.2425 17.0118C41.6629 17.0118 38.7508 19.8955 38.7508 23.4401C38.7497 24.4936 39.0118 25.531 39.5137 26.4599C40.2066 27.7437 41.3263 28.7686 42.6844 29.3474C43.4923 29.6919 44.3628 29.8692 45.2425 29.8685C48.8221 29.8685 51.7342 26.9848 51.7342 23.4401C51.7342 19.8955 48.8221 17.0118 45.2425 17.0118Z" fill="#0096DB"/>
</svg>
