<svg width="17" height="16" viewBox="0 0 17 16" fill="none" xmlns="http://www.w3.org/2000/svg">
<path d="M8.04801 13.3333C9.4625 13.3333 10.8191 12.7714 11.8193 11.7712C12.8194 10.7711 13.3813 9.4145 13.3813 8.00001C13.3813 6.58552 12.8194 5.22897 11.8193 4.22877C10.8191 3.22858 9.4625 2.66668 8.04801 2.66668C6.63353 2.66668 5.27697 3.22858 4.27678 4.22877C3.27658 5.22897 2.71468 6.58552 2.71468 8.00001C2.71468 9.4145 3.27658 10.7711 4.27678 11.7712C5.27697 12.7714 6.63353 13.3333 8.04801 13.3333ZM8.04801 1.33334C8.92349 1.33334 9.7904 1.50578 10.5992 1.84081C11.4081 2.17584 12.143 2.66691 12.7621 3.28596C13.3811 3.90502 13.8722 4.63995 14.2072 5.44879C14.5422 6.25762 14.7147 7.12453 14.7147 8.00001C14.7147 9.76812 14.0123 11.4638 12.7621 12.7141C11.5118 13.9643 9.81612 14.6667 8.04801 14.6667C4.36135 14.6667 1.38135 11.6667 1.38135 8.00001C1.38135 6.2319 2.08373 4.53621 3.33397 3.28596C4.58421 2.03572 6.2799 1.33334 8.04801 1.33334ZM8.38135 4.66668V8.16668L11.3813 9.94668L10.8813 10.7667L7.38135 8.66668V4.66668H8.38135Z" fill="white"/>
</svg>
