<svg width="17" height="16" viewBox="0 0 17 16" fill="none" xmlns="http://www.w3.org/2000/svg">
    <path d="M2.0481 6V14H14.0481V3H12.0481V3.5C12.0481 3.63261 11.9954 3.75979 11.9016 3.85355C11.8079 3.94732 11.6807 4 11.5481 4C11.4155 4 11.2883 3.94732 11.1945 3.85355C11.1008 3.75979 11.0481 3.63261 11.0481 3.5V3H5.0481V3.5C5.0481 3.63261 4.99542 3.75979 4.90165 3.85355C4.80788 3.94732 4.6807 4 4.5481 4C4.41549 4 4.28831 3.94732 4.19454 3.85355C4.10077 3.75979 4.0481 3.63261 4.0481 3.5V3H2.0481V5H14.0481V6H2.0481ZM5.0481 2H11.0481V1.5C11.0481 1.36739 11.1008 1.24021 11.1945 1.14645C11.2883 1.05268 11.4155 1 11.5481 1C11.6807 1 11.8079 1.05268 11.9016 1.14645C11.9954 1.24021 12.0481 1.36739 12.0481 1.5V2H14.5481C14.6807 2 14.8079 2.05268 14.9016 2.14645C14.9954 2.24021 15.0481 2.36739 15.0481 2.5V14.5C15.0481 14.6326 14.9954 14.7598 14.9016 14.8536C14.8079 14.9473 14.6807 15 14.5481 15H1.5481C1.41549 15 1.28831 14.9473 1.19454 14.8536C1.10077 14.7598 1.0481 14.6326 1.0481 14.5V2.5C1.0481 2.36739 1.10077 2.24021 1.19454 2.14645C1.28831 2.05268 1.41549 2 1.5481 2H4.0481V1.5C4.0481 1.36739 4.10077 1.24021 4.19454 1.14645C4.28831 1.05268 4.41549 1 4.5481 1C4.6807 1 4.80788 1.05268 4.90165 1.14645C4.99542 1.24021 5.0481 1.36739 5.0481 1.5V2ZM4.5481 8H5.5481C5.6807 8 5.80788 8.05268 5.90165 8.14645C5.99542 8.24021 6.0481 8.36739 6.0481 8.5C6.0481 8.63261 5.99542 8.75979 5.90165 8.85355C5.80788 8.94732 5.6807 9 5.5481 9H4.5481C4.41549 9 4.28831 8.94732 4.19454 8.85355C4.10077 8.75979 4.0481 8.63261 4.0481 8.5C4.0481 8.36739 4.10077 8.24021 4.19454 8.14645C4.28831 8.05268 4.41549 8 4.5481 8ZM4.5481 11H5.5481C5.6807 11 5.80788 11.0527 5.90165 11.1464C5.99542 11.2402 6.0481 11.3674 6.0481 11.5C6.0481 11.6326 5.99542 11.7598 5.90165 11.8536C5.80788 11.9473 5.6807 12 5.5481 12H4.5481C4.41549 12 4.28831 11.9473 4.19454 11.8536C4.10077 11.7598 4.0481 11.6326 4.0481 11.5C4.0481 11.3674 4.10077 11.2402 4.19454 11.1464C4.28831 11.0527 4.41549 11 4.5481 11ZM7.5481 8H8.5481C8.6807 8 8.80788 8.05268 8.90165 8.14645C8.99542 8.24021 9.0481 8.36739 9.0481 8.5C9.0481 8.63261 8.99542 8.75979 8.90165 8.85355C8.80788 8.94732 8.6807 9 8.5481 9H7.5481C7.41549 9 7.28831 8.94732 7.19454 8.85355C7.10077 8.75979 7.0481 8.63261 7.0481 8.5C7.0481 8.36739 7.10077 8.24021 7.19454 8.14645C7.28831 8.05268 7.41549 8 7.5481 8ZM7.5481 11H8.5481C8.6807 11 8.80788 11.0527 8.90165 11.1464C8.99542 11.2402 9.0481 11.3674 9.0481 11.5C9.0481 11.6326 8.99542 11.7598 8.90165 11.8536C8.80788 11.9473 8.6807 12 8.5481 12H7.5481C7.41549 12 7.28831 11.9473 7.19454 11.8536C7.10077 11.7598 7.0481 11.6326 7.0481 11.5C7.0481 11.3674 7.10077 11.2402 7.19454 11.1464C7.28831 11.0527 7.41549 11 7.5481 11ZM10.5481 8H11.5481C11.6807 8 11.8079 8.05268 11.9016 8.14645C11.9954 8.24021 12.0481 8.36739 12.0481 8.5C12.0481 8.63261 11.9954 8.75979 11.9016 8.85355C11.8079 8.94732 11.6807 9 11.5481 9H10.5481C10.4155 9 10.2883 8.94732 10.1945 8.85355C10.1008 8.75979 10.0481 8.63261 10.0481 8.5C10.0481 8.36739 10.1008 8.24021 10.1945 8.14645C10.2883 8.05268 10.4155 8 10.5481 8ZM10.5481 11H11.5481C11.6807 11 11.8079 11.0527 11.9016 11.1464C11.9954 11.2402 12.0481 11.3674 12.0481 11.5C12.0481 11.6326 11.9954 11.7598 11.9016 11.8536C11.8079 11.9473 11.6807 12 11.5481 12H10.5481C10.4155 12 10.2883 11.9473 10.1945 11.8536C10.1008 11.7598 10.0481 11.6326 10.0481 11.5C10.0481 11.3674 10.1008 11.2402 10.1945 11.1464C10.2883 11.0527 10.4155 11 10.5481 11Z"
          fill="rgba(0,0,0,0.5)"/>
</svg>
