<svg width="135" height="157" viewBox="0 0 135 157" fill="none" xmlns="http://www.w3.org/2000/svg">
<path d="M67.1246 92.6216C91.1851 92.6216 110.69 73.343 110.69 49.5614C110.69 25.7799 91.1851 6.50122 67.1246 6.50122C43.0642 6.50122 23.5596 25.7799 23.5596 49.5614C23.5596 73.343 43.0642 92.6216 67.1246 92.6216Z" fill="#0096DB"/>
<path d="M0.0169019 0H134.789C134.832 0.442855 134.885 0.730847 134.887 1.01884C134.928 19.2474 134.964 37.4742 134.997 55.6992C134.997 63.7576 135.036 71.8186 134.816 79.8797C134.42 94.3879 130.099 107.673 121.853 119.734C114.448 130.561 104.742 138.961 93.4857 145.688C85.7056 150.372 77.367 154.083 68.6616 156.735C67.8359 156.958 66.9632 156.942 66.1465 156.689C53.2521 152.614 41.3692 146.637 30.77 138.277C20.6766 130.327 12.4935 120.84 7.1307 109.124C3.70025 101.612 1.41052 93.8011 0.651866 85.5988C0.275285 81.5614 0.060882 77.4915 0.0526358 73.4352C-0.00233942 49.6731 -0.0142506 25.9093 0.0169019 2.14364V0ZM68.0954 11.5957C45.0278 12.0685 31.7128 29.1388 31.5836 47.0024C31.4407 66.5261 47.6391 82.6237 67.2488 82.6699C87.4164 82.7161 103.45 66.9309 103.472 47.0051C103.497 27.908 87.2213 11.6175 68.0954 11.5957Z" fill="white"/>
<path d="M63.3494 45.8913C63.0522 45.4348 62.7226 44.9998 62.3625 44.5899C59.6743 41.9572 55.6638 42.0794 53.1982 44.9213C52.9489 45.2444 52.6221 45.5011 52.2474 45.6682C51.8725 45.835 51.4615 45.907 51.0514 45.8777C48.5775 45.8261 46.1036 45.8777 43.6298 45.8641C43.5638 45.8641 43.4978 45.7989 43.3164 45.7011C43.6377 42.7497 44.8244 39.9556 46.7304 37.6618C46.8439 37.5781 46.9747 37.5205 47.1138 37.4933C47.2526 37.4661 47.3958 37.4697 47.533 37.5042C48.2697 37.6753 48.9761 37.9905 49.732 38.1291C50.1856 38.216 50.6803 38.0802 51.1559 38.0448C50.9186 37.6805 50.6421 37.3425 50.3312 37.0369C49.7592 36.6291 49.1666 36.2498 48.5555 35.9012C49.6138 34.3118 51.1943 33.5511 52.7364 32.7686C55.4852 31.3694 58.4538 31.0053 61.5077 31.2037C61.6589 31.2037 61.9255 31.2037 61.9447 31.2526C62.3516 32.5078 62.7694 33.7603 63.102 35.0318C63.3219 35.8469 62.577 36.0099 62.0437 36.249C61.6894 36.3984 61.321 36.5131 60.9442 36.5913C60.1443 36.776 59.8942 37.2488 60.158 38.1562C60.9552 38.0965 61.7716 38.0584 62.5852 37.9742C63.3988 37.89 63.8689 38.1916 63.9981 39.0419C64.1712 40.1939 64.3801 41.3459 64.6468 42.4788C64.9326 43.7666 64.3472 44.7148 63.3494 45.8913Z" fill="white"/>
<path d="M63.5618 21.7943C67.5805 21.0472 71.2418 21.7645 74.9581 22.7398C74.5293 24.3482 74.1197 25.9077 73.6992 27.4618C73.2456 29.13 73.2374 29.1408 74.7712 29.888C80.2275 32.5397 83.6167 36.8895 85.3347 42.5705C85.6425 43.5866 85.6838 44.6815 85.8624 45.8444H80.09C79.8454 44.8228 79.6283 43.7632 79.3424 42.7254C77.4897 35.9929 73.1219 31.5589 66.5332 29.2631C65.4144 28.8746 64.8289 28.3774 64.642 27.2336C64.3562 25.4567 63.9493 23.7016 63.5618 21.7943Z" fill="white"/>
<path d="M63.9791 64.2067C63.6465 62.6744 63.3551 61.3187 63.0637 59.9656C63.05 59.7035 62.9914 59.4451 62.8906 59.2022C62.6495 58.8838 62.3818 58.5857 62.0907 58.311C61.879 58.6425 61.497 58.9685 61.4915 59.3027C61.4612 60.6911 61.4915 62.0848 61.6069 63.4704C61.6701 64.3127 61.4969 64.6306 60.5349 64.6876C55.7108 64.9756 51.8351 62.9379 48.3194 59.9765C48.1105 59.7972 48.1215 59.3543 48.0445 59.031C48.0308 58.9713 48.0995 58.8952 48.1215 58.8245C49.1853 55.5643 49.1825 55.586 52.6322 55.6512C54.4519 55.6838 56.2826 55.7436 58.0967 55.6213C60.6091 55.4502 62.6487 54.3661 63.7317 52.0051C64.2375 50.8966 65.1336 51.3232 65.8785 51.3449C66.1204 51.3449 66.464 51.9834 66.5574 52.3773C66.9175 53.8743 67.2309 55.3877 67.4673 56.9091C67.514 57.2107 67.1731 57.5911 66.9697 57.9089C66.7663 58.2268 66.4804 58.5773 66.2331 58.9088C66.5885 59.0517 66.9329 59.2196 67.2638 59.4114C67.58 59.6206 68.0198 59.857 68.105 60.164C68.7729 62.5114 68.6547 62.7342 66.3018 63.5574C65.5953 63.8073 64.8697 63.9649 63.9791 64.2067Z" fill="white"/>
<path d="M85.4559 51.311C84.8402 55.5549 82.3828 58.6032 79.7467 61.763C80.8655 63.2247 82.0254 64.7353 83.3009 66.3817L80.9782 68.1151C80.4257 67.3478 79.8322 66.6105 79.1997 65.9063C78.9001 65.6047 78.3751 65.5232 77.9463 65.3439C77.9106 65.7623 77.7841 66.1997 77.8638 66.5963C77.9922 67.222 78.1934 67.8312 78.4631 68.4112C78.8012 69.1448 78.5648 69.5116 77.8418 69.7697C76.7671 70.1392 75.717 70.5848 74.6423 70.957C74.0513 71.1635 73.6857 71.0358 73.5428 70.2913C73.1662 68.2971 72.6577 66.3301 72.2866 64.3359C72.2638 64.1161 72.2913 63.8941 72.3669 63.6863C72.4425 63.4784 72.5645 63.2901 72.7236 63.135C76.2778 60.4181 78.4686 56.8644 79.4609 52.5798C79.6917 51.5882 80.1096 51.2214 81.1458 51.2866C82.5395 51.379 83.9386 51.311 85.4559 51.311Z" fill="white"/>
<path d="M76.168 27.8837L78.389 23.9333C79.9118 24.9712 81.2916 25.8814 82.6248 26.8513C82.8007 26.979 82.8584 27.4436 82.7815 27.6935C82.6185 28.1562 82.3931 28.595 82.1108 28.9977C81.7452 29.541 81.8002 29.9622 82.5423 30.3018L84.8485 28.5467C85.4203 29.1933 86.0223 29.8127 86.539 30.4974C86.6902 30.6957 86.6242 31.0788 86.6132 31.3749C86.5891 31.692 86.5487 32.0074 86.4923 32.3204C86.804 32.3253 87.1146 32.3555 87.4214 32.4101C87.732 32.4916 88.191 32.5785 88.2927 32.7959C89.6149 35.6215 91.0085 38.4226 92.1163 41.3324C92.6303 42.6908 92.5588 44.2531 92.7787 45.9131C91.1624 45.9131 89.8375 45.943 88.5181 45.8832C88.312 45.8832 88.0151 45.4974 87.9436 45.242C87.7073 44.3726 87.5368 43.4842 87.3746 42.5958C86.1982 36.1893 82.3499 31.6983 76.9294 28.332C76.737 28.2125 76.5418 28.1038 76.168 27.8837Z" fill="white"/>
<path d="M66.7986 37.3502L67.9283 36.1982C67.5682 35.9619 67.1916 35.7445 66.8535 35.4783C66.6117 35.3307 66.4203 35.115 66.3038 34.8588C66.0949 34.0682 65.9684 33.2558 65.7375 32.074C66.9443 32.6011 67.9833 32.9135 68.8656 33.4677C72.3876 35.6326 75.0564 38.9214 76.4302 42.7894C77.494 45.702 77.2961 45.9166 74.2202 45.9166C73.687 45.9166 73.1509 45.8813 72.6232 45.9166C71.433 46.0117 70.35 45.9601 69.8744 44.588C69.8255 44.465 69.7516 44.353 69.657 44.2596C69.5624 44.1661 69.4492 44.0927 69.3247 44.0446C67.9503 43.6181 67.7331 42.458 67.5132 41.306C67.2466 39.9231 67.0075 38.5185 66.7986 37.3502Z" fill="white"/>
<path d="M48.9001 64.4128C49.258 64.506 49.606 64.6335 49.9391 64.7932C55.695 68.2437 61.6681 68.5425 67.8446 66.0348C68.2294 65.8773 68.6197 65.7441 69.2712 65.4915C69.7219 67.6297 70.1535 69.6836 70.5961 71.7838C64.6505 72.751 59.2272 71.7077 54.2767 68.6594C52.3388 67.4666 50.6648 65.8528 48.8699 64.4319L48.9001 64.4128Z" fill="white"/>
<path d="M44.2722 35.4824C44.9484 34.3169 45.5092 33.0644 46.32 32.0021C49.5031 27.8262 53.5328 24.7235 58.5465 22.933C59.143 22.7211 59.7725 22.6016 60.5174 22.3896C60.9022 24.3594 61.2678 26.2178 61.6169 28.0327C59.6158 28.2174 57.6587 28.2174 55.784 28.6032C51.5729 29.4672 47.9775 31.475 45.204 34.8005C44.9468 35.0722 44.6713 35.3262 44.3794 35.5612L44.2722 35.4824Z" fill="white"/>
<path d="M92.2885 51.3143C91.428 56.3089 89.1901 60.4204 85.781 64.0862L82.897 61.6948C83.0284 61.3804 83.1884 61.0785 83.3753 60.7927C85.3095 58.4035 86.647 55.5977 87.2793 52.6023C87.5048 51.5697 87.9859 51.1648 89.0774 51.2789C90.0836 51.3985 91.1119 51.3143 92.2885 51.3143Z" fill="white"/>
<path d="M71.4712 60.3899C70.8251 57.2024 70.2478 54.3436 69.6484 51.3789H76.7499C75.9251 54.8817 74.3937 57.8708 71.4712 60.3899Z" fill="white"/>
<path d="M61.9467 51.2851C61.4656 52.6431 60.6188 53.3737 59.4723 53.6833C56.5333 54.4845 53.5559 54.3841 50.4409 53.9549C50.7571 53.1401 50.9908 52.434 51.3179 51.7822C51.3999 51.6512 51.5107 51.5404 51.6421 51.4576C51.7735 51.3748 51.922 51.3223 52.0767 51.3041C55.3182 51.2743 58.5513 51.2851 61.9467 51.2851Z" fill="white"/>
<path d="M43.5 51.2896C45.2705 51.2896 46.9421 51.2896 48.6109 51.2896C48.8336 51.2896 49.0563 51.3303 49.4934 51.3765C48.7594 52.3271 49.2818 54.0272 47.7971 54.1766C44.4348 54.5216 44.0966 54.1984 43.5 51.2896Z" fill="#0096DB"/>
<path d="M67.0433 48.6293C65.9655 48.6293 65.3002 47.948 65.3057 46.8486C65.2999 46.6144 65.3414 46.3812 65.428 46.1629C65.5144 45.9447 65.6441 45.7457 65.8096 45.5777C65.9752 45.4096 66.1728 45.2756 66.3911 45.1841C66.6097 45.0923 66.8445 45.0445 67.0817 45.0435C67.5788 45.0589 68.0506 45.2636 68.3978 45.6149C68.7453 45.9661 68.9416 46.4363 68.9458 46.9273C68.9161 47.3999 68.7005 47.8424 68.345 48.1603C67.9896 48.4781 67.5225 48.6464 67.0433 48.6293Z" fill="white"/>
<path d="M61.0025 45.9562H54.9761C56.2352 43.825 59.4079 43.89 61.0025 45.9562Z" fill="white"/>
<path d="M44.3874 35.5747L44.1436 35.7908L44.275 35.4829C44.3107 35.5153 44.349 35.545 44.3874 35.5747Z" fill="#0096DB"/>
<path d="M48.8713 64.4417L48.7244 64.3252L48.8991 64.4167L48.8713 64.4417Z" fill="#0096DB"/>
<path d="M44.0005 115.721C44.0005 114.857 44.0005 113.996 44.0005 113.132C44.0005 109.716 44.0005 106.3 44.0005 102.884V102.553H48.437V107.337L49.4953 106.19L51.9691 103.49C52.222 103.218 52.4694 102.933 52.7305 102.675C52.8034 102.601 52.9012 102.556 53.0054 102.55C54.5447 102.55 56.084 102.55 57.6233 102.55C57.6481 102.55 57.6728 102.55 57.7498 102.569L52.4117 108.375L58.0356 115.792H57.7608C56.194 115.792 54.6272 115.792 53.0604 115.792C52.9818 115.795 52.9037 115.778 52.8336 115.743C52.7638 115.707 52.7044 115.654 52.6618 115.588C51.6668 114.273 50.6681 112.962 49.6657 111.654C49.6134 111.584 49.5557 111.518 49.4678 111.415C49.2204 111.687 49.0032 111.958 48.7531 112.184C48.6459 112.283 48.5629 112.404 48.5101 112.539C48.4573 112.674 48.4359 112.819 48.448 112.964C48.4672 113.8 48.448 114.635 48.448 115.471V115.776H44.05L44.0005 115.721Z" fill="#0096DB"/>
<path d="M66.2482 102.543H70.7213V102.878C70.7213 105.378 70.7213 107.88 70.7543 110.381C70.734 110.748 70.8151 111.115 70.9896 111.44C71.1639 111.766 71.4249 112.038 71.744 112.228C72.6733 112.772 74.3641 112.473 74.6226 111.044C74.7251 110.526 74.7839 110 74.7985 109.473C74.815 107.266 74.7985 105.06 74.7985 102.851V102.549H79.2524V102.837C79.2524 105.144 79.2524 107.457 79.2524 109.753C79.2754 110.818 79.0684 111.876 78.6448 112.856C78.3313 113.546 77.8695 114.159 77.2918 114.654C76.7139 115.149 76.0338 115.514 75.2989 115.723C74.2676 116.047 73.183 116.171 72.1042 116.09C70.8819 116.046 69.6936 115.68 68.6621 115.03C68.066 114.634 67.5561 114.124 67.1624 113.531C66.7687 112.937 66.499 112.272 66.3692 111.573C66.2655 111.076 66.2119 110.57 66.2097 110.063C66.1905 107.617 66.2097 105.171 66.2097 102.726C66.2097 102.679 66.2097 102.636 66.2097 102.592L66.2482 102.543Z" fill="#0096DB"/>
<path d="M92.932 102.588V106.001H89.0308V115.759H84.5192V106.017H80.5959V102.549C80.6592 102.549 80.7197 102.536 80.7801 102.536H92.7451C92.7918 102.536 92.8358 102.536 92.8798 102.536L92.932 102.588Z" fill="#0096DB"/>
<path d="M63.5978 115.77H59.1687L59.1274 115.724V113.083V102.552H63.6363C63.6363 102.615 63.6555 102.683 63.6555 102.751V115.591C63.6555 115.634 63.6555 115.68 63.6555 115.724L63.5978 115.77Z" fill="#0096DB"/>
</svg>
