<svg width="40" height="40" viewBox="0 0 40 40" fill="none" xmlns="http://www.w3.org/2000/svg">
<rect width="40" height="40" fill="white" fill-opacity="0.9"/>
<path d="M20.2172 13.9563C20.159 13.9007 20.0817 13.8696 20.0012 13.8696C19.9207 13.8696 19.8433 13.9007 19.7852 13.9563L12.5938 20.8262C12.5632 20.8554 12.5389 20.8906 12.5223 20.9294C12.5057 20.9683 12.4972 21.0101 12.4973 21.0524L12.4961 27.5001C12.4961 27.8316 12.6278 28.1495 12.8622 28.3839C13.0966 28.6184 13.4146 28.7501 13.7461 28.7501H17.5C17.6658 28.7501 17.8247 28.6842 17.9419 28.567C18.0592 28.4498 18.125 28.2908 18.125 28.1251V22.8126C18.125 22.7297 18.1579 22.6502 18.2165 22.5916C18.2751 22.533 18.3546 22.5001 18.4375 22.5001H21.5625C21.6454 22.5001 21.7249 22.533 21.7835 22.5916C21.8421 22.6502 21.875 22.7297 21.875 22.8126V28.1251C21.875 28.2908 21.9408 28.4498 22.0581 28.567C22.1753 28.6842 22.3342 28.7501 22.5 28.7501H26.2523C26.5839 28.7501 26.9018 28.6184 27.1362 28.3839C27.3706 28.1495 27.5023 27.8316 27.5023 27.5001V21.0524C27.5024 21.0101 27.4939 20.9683 27.4773 20.9294C27.4607 20.8906 27.4364 20.8554 27.4059 20.8262L20.2172 13.9563Z" fill="#0096DB"/>
<path d="M29.1762 19.5371L26.2543 16.7418V12.5C26.2543 12.3342 26.1885 12.1753 26.0713 12.0581C25.954 11.9408 25.7951 11.875 25.6293 11.875H23.7543C23.5886 11.875 23.4296 11.9408 23.3124 12.0581C23.1952 12.1753 23.1293 12.3342 23.1293 12.5V13.75L20.8668 11.5867C20.6551 11.3727 20.3402 11.25 20 11.25C19.661 11.25 19.3469 11.3727 19.1352 11.5871L10.8266 19.5363C10.5836 19.7707 10.5531 20.1562 10.7742 20.4102C10.8298 20.4742 10.8977 20.5264 10.974 20.5633C11.0503 20.6003 11.1334 20.6214 11.2181 20.6253C11.3028 20.6291 11.3874 20.6157 11.4668 20.5859C11.5461 20.556 11.6186 20.5103 11.6797 20.4516L19.7852 12.7062C19.8433 12.6506 19.9207 12.6196 20.0012 12.6196C20.0817 12.6196 20.159 12.6506 20.2172 12.7062L28.3235 20.4516C28.4429 20.5661 28.6028 20.6286 28.7682 20.6253C28.9336 20.6221 29.091 20.5534 29.2059 20.4344C29.4457 20.1859 29.4258 19.7758 29.1762 19.5371Z" fill="#0096DB"/>
</svg>
