<svg width="23" height="23" viewBox="0 0 23 23" fill="none" xmlns="http://www.w3.org/2000/svg">
<path d="M11.4997 9.21302C10.239 9.21302 9.21252 10.239 9.21252 11.4997C9.21252 12.761 10.239 13.7875 11.4997 13.7875C12.761 13.7875 13.787 12.761 13.787 11.4997C13.787 10.239 12.761 9.21302 11.4997 9.21302ZM11.4997 9.21302C10.239 9.21302 9.21252 10.239 9.21252 11.4997C9.21252 12.761 10.239 13.7875 11.4997 13.7875C12.761 13.7875 13.787 12.761 13.787 11.4997C13.787 10.239 12.761 9.21302 11.4997 9.21302ZM15.3101 5.4839H7.68988C6.47359 5.4839 5.4839 6.47359 5.4839 7.68988V15.3101C5.4839 16.5264 6.47359 17.5161 7.68988 17.5161H15.3101C16.5264 17.5161 17.5161 16.5264 17.5161 15.3101V7.68988C17.5161 6.47359 16.5264 5.4839 15.3101 5.4839ZM11.4997 15.461C9.31598 15.461 7.53898 13.684 7.53898 11.4997C7.53898 9.31598 9.31598 7.53898 11.4997 7.53898C13.684 7.53898 15.461 9.31598 15.461 11.4997C15.461 13.684 13.684 15.461 11.4997 15.461ZM15.5882 8.35808C15.0714 8.35808 14.651 7.93768 14.651 7.42088C14.651 6.90409 15.0714 6.48369 15.5882 6.48369C16.105 6.48369 16.5254 6.90409 16.5254 7.42088C16.5254 7.93768 16.105 8.35808 15.5882 8.35808ZM11.4997 9.21302C10.239 9.21302 9.21252 10.239 9.21252 11.4997C9.21252 12.761 10.239 13.7875 11.4997 13.7875C12.761 13.7875 13.787 12.761 13.787 11.4997C13.787 10.239 12.761 9.21302 11.4997 9.21302ZM15.3101 5.4839H7.68988C6.47359 5.4839 5.4839 6.47359 5.4839 7.68988V15.3101C5.4839 16.5264 6.47359 17.5161 7.68988 17.5161H15.3101C16.5264 17.5161 17.5161 16.5264 17.5161 15.3101V7.68988C17.5161 6.47359 16.5264 5.4839 15.3101 5.4839ZM11.4997 15.461C9.31598 15.461 7.53898 13.684 7.53898 11.4997C7.53898 9.31598 9.31598 7.53898 11.4997 7.53898C13.684 7.53898 15.461 9.31598 15.461 11.4997C15.461 13.684 13.684 15.461 11.4997 15.461ZM15.5882 8.35808C15.0714 8.35808 14.651 7.93768 14.651 7.42088C14.651 6.90409 15.0714 6.48369 15.5882 6.48369C16.105 6.48369 16.5254 6.90409 16.5254 7.42088C16.5254 7.93768 16.105 8.35808 15.5882 8.35808ZM11.4997 9.21302C10.239 9.21302 9.21252 10.239 9.21252 11.4997C9.21252 12.761 10.239 13.7875 11.4997 13.7875C12.761 13.7875 13.787 12.761 13.787 11.4997C13.787 10.239 12.761 9.21302 11.4997 9.21302ZM0 0V23H23V0H0ZM19.1896 15.3101C19.1896 17.4495 17.4495 19.1896 15.3101 19.1896H7.68988C5.55052 19.1896 3.81037 17.4495 3.81037 15.3101V7.68988C3.81037 5.55052 5.55052 3.81037 7.68988 3.81037H15.3101C17.4495 3.81037 19.1896 5.55052 19.1896 7.68988V15.3101ZM15.3101 5.4839H7.68988C6.47359 5.4839 5.4839 6.47359 5.4839 7.68988V15.3101C5.4839 16.5264 6.47359 17.5161 7.68988 17.5161H15.3101C16.5264 17.5161 17.5161 16.5264 17.5161 15.3101V7.68988C17.5161 6.47359 16.5264 5.4839 15.3101 5.4839ZM11.4997 15.461C9.31598 15.461 7.53898 13.684 7.53898 11.4997C7.53898 9.31598 9.31598 7.53898 11.4997 7.53898C13.684 7.53898 15.461 9.31598 15.461 11.4997C15.461 13.684 13.684 15.461 11.4997 15.461ZM15.5882 8.35808C15.0714 8.35808 14.651 7.93768 14.651 7.42088C14.651 6.90409 15.0714 6.48369 15.5882 6.48369C16.105 6.48369 16.5254 6.90409 16.5254 7.42088C16.5254 7.93768 16.105 8.35808 15.5882 8.35808ZM11.4997 9.21302C10.239 9.21302 9.21252 10.239 9.21252 11.4997C9.21252 12.761 10.239 13.7875 11.4997 13.7875C12.761 13.7875 13.787 12.761 13.787 11.4997C13.787 10.239 12.761 9.21302 11.4997 9.21302ZM11.4997 9.21302C10.239 9.21302 9.21252 10.239 9.21252 11.4997C9.21252 12.761 10.239 13.7875 11.4997 13.7875C12.761 13.7875 13.787 12.761 13.787 11.4997C13.787 10.239 12.761 9.21302 11.4997 9.21302ZM11.4997 9.21302C10.239 9.21302 9.21252 10.239 9.21252 11.4997C9.21252 12.761 10.239 13.7875 11.4997 13.7875C12.761 13.7875 13.787 12.761 13.787 11.4997C13.787 10.239 12.761 9.21302 11.4997 9.21302ZM15.3101 5.4839H7.68988C6.47359 5.4839 5.4839 6.47359 5.4839 7.68988V15.3101C5.4839 16.5264 6.47359 17.5161 7.68988 17.5161H15.3101C16.5264 17.5161 17.5161 16.5264 17.5161 15.3101V7.68988C17.5161 6.47359 16.5264 5.4839 15.3101 5.4839ZM11.4997 15.461C9.31598 15.461 7.53898 13.684 7.53898 11.4997C7.53898 9.31598 9.31598 7.53898 11.4997 7.53898C13.684 7.53898 15.461 9.31598 15.461 11.4997C15.461 13.684 13.684 15.461 11.4997 15.461ZM15.5882 8.35808C15.0714 8.35808 14.651 7.93768 14.651 7.42088C14.651 6.90409 15.0714 6.48369 15.5882 6.48369C16.105 6.48369 16.5254 6.90409 16.5254 7.42088C16.5254 7.93768 16.105 8.35808 15.5882 8.35808ZM11.4997 9.21302C10.239 9.21302 9.21252 10.239 9.21252 11.4997C9.21252 12.761 10.239 13.7875 11.4997 13.7875C12.761 13.7875 13.787 12.761 13.787 11.4997C13.787 10.239 12.761 9.21302 11.4997 9.21302ZM11.4997 9.21302C10.239 9.21302 9.21252 10.239 9.21252 11.4997C9.21252 12.761 10.239 13.7875 11.4997 13.7875C12.761 13.7875 13.787 12.761 13.787 11.4997C13.787 10.239 12.761 9.21302 11.4997 9.21302ZM11.4997 9.21302C10.239 9.21302 9.21252 10.239 9.21252 11.4997C9.21252 12.761 10.239 13.7875 11.4997 13.7875C12.761 13.7875 13.787 12.761 13.787 11.4997C13.787 10.239 12.761 9.21302 11.4997 9.21302ZM15.3101 5.4839H7.68988C6.47359 5.4839 5.4839 6.47359 5.4839 7.68988V15.3101C5.4839 16.5264 6.47359 17.5161 7.68988 17.5161H15.3101C16.5264 17.5161 17.5161 16.5264 17.5161 15.3101V7.68988C17.5161 6.47359 16.5264 5.4839 15.3101 5.4839ZM11.4997 15.461C9.31598 15.461 7.53898 13.684 7.53898 11.4997C7.53898 9.31598 9.31598 7.53898 11.4997 7.53898C13.684 7.53898 15.461 9.31598 15.461 11.4997C15.461 13.684 13.684 15.461 11.4997 15.461ZM15.5882 8.35808C15.0714 8.35808 14.651 7.93768 14.651 7.42088C14.651 6.90409 15.0714 6.48369 15.5882 6.48369C16.105 6.48369 16.5254 6.90409 16.5254 7.42088C16.5254 7.93768 16.105 8.35808 15.5882 8.35808ZM11.4997 9.21302C10.239 9.21302 9.21252 10.239 9.21252 11.4997C9.21252 12.761 10.239 13.7875 11.4997 13.7875C12.761 13.7875 13.787 12.761 13.787 11.4997C13.787 10.239 12.761 9.21302 11.4997 9.21302Z" fill="white"/>
</svg>
