<svg width="40" height="40" viewBox="0 0 40 40" fill="none" xmlns="http://www.w3.org/2000/svg">
<rect width="40" height="40" fill="white" fill-opacity="0.9"/>
<path d="M18.6556 25.9778C21.8 24.3778 24.3778 21.8 25.9778 18.6556L23.5333 16.2111C23.2222 15.9 23.1333 15.4667 23.2556 15.0778C23.6667 13.8333 23.8889 12.5 23.8889 11.1111C23.8889 10.8164 24.006 10.5338 24.2143 10.3254C24.4227 10.1171 24.7053 10 25 10H28.8889C29.1836 10 29.4662 10.1171 29.6746 10.3254C29.8829 10.5338 30 10.8164 30 11.1111C30 16.1208 28.0099 20.9252 24.4676 24.4676C20.9252 28.0099 16.1208 30 11.1111 30C10.8164 30 10.5338 29.8829 10.3254 29.6746C10.1171 29.4662 10 29.1836 10 28.8889L10 25C10 24.7053 10.1171 24.4227 10.3254 24.2143C10.5338 24.006 10.8164 23.8889 11.1111 23.8889C12.5 23.8889 13.8333 23.6667 15.0778 23.2556C15.4667 23.1333 15.9 23.2222 16.2111 23.5333L18.6556 25.9778Z" fill="#0096DB"/>
</svg>
