<svg width="23" height="23" viewBox="0 0 23 23" fill="none" xmlns="http://www.w3.org/2000/svg">
<path d="M15.9602 7.56533L7.52381 12.7977C7.45158 12.8425 7.39627 12.91 7.36654 12.9896C7.3368 13.0692 7.33434 13.1564 7.35953 13.2376L8.49118 16.8841C8.51495 16.9607 8.62659 16.9502 8.63557 16.8704L8.91063 14.4253C8.92124 14.3309 8.96654 14.2437 9.03776 14.1807L16.1819 7.86324C16.3529 7.71204 16.1542 7.44496 15.9602 7.56533Z" fill="white"/>
<path d="M0 0V23H23V0H0ZM19.172 5.97636L16.5461 18.5309C16.4229 19.12 15.7319 19.3846 15.2467 19.0284L11.282 16.1182L9.26125 18.1814C8.90661 18.5435 8.29397 18.3969 8.14161 17.9135L6.68302 13.2852L2.7747 12.1311C2.26194 11.9797 2.23171 11.2648 2.72988 11.0707L18.1103 5.07712C18.6957 4.849 19.3007 5.36136 19.172 5.97636Z" fill="white"/>
</svg>
