<svg width="104" height="6" viewBox="0 0 104 6" fill="none" xmlns="http://www.w3.org/2000/svg">
<line x1="0.609566" y1="5.68765" x2="4.60957" y2="0.687652" stroke="#0096DB"/>
<line x1="36.6096" y1="5.68765" x2="40.6096" y2="0.687652" stroke="#0096DB"/>
<line x1="18.6096" y1="5.68765" x2="22.6096" y2="0.687652" stroke="#0096DB"/>
<line x1="54.6096" y1="5.68765" x2="58.6096" y2="0.687652" stroke="#0096DB"/>
<line x1="84.6096" y1="5.68765" x2="88.6096" y2="0.687652" stroke="#0096DB"/>
<line x1="9.60957" y1="5.68765" x2="13.6096" y2="0.687652" stroke="#0096DB"/>
<line x1="45.6096" y1="5.68765" x2="49.6096" y2="0.687652" stroke="#0096DB"/>
<line x1="75.6096" y1="5.68765" x2="79.6096" y2="0.687652" stroke="#0096DB"/>
<line x1="27.6096" y1="5.68765" x2="31.6096" y2="0.687652" stroke="#0096DB"/>
<line x1="63.6096" y1="5.68765" x2="67.6096" y2="0.687652" stroke="#0096DB"/>
<line x1="93.6096" y1="5.68765" x2="97.6096" y2="0.687652" stroke="#0096DB"/>
<line x1="3.60957" y1="5.68765" x2="7.60957" y2="0.687652" stroke="#0096DB"/>
<line x1="39.6096" y1="5.68765" x2="43.6096" y2="0.687652" stroke="#0096DB"/>
<line x1="69.6096" y1="5.68765" x2="73.6096" y2="0.687652" stroke="#0096DB"/>
<line x1="21.6096" y1="5.68765" x2="25.6096" y2="0.687652" stroke="#0096DB"/>
<line x1="57.6096" y1="5.68765" x2="61.6096" y2="0.687652" stroke="#0096DB"/>
<line x1="87.6096" y1="5.68765" x2="91.6096" y2="0.687652" stroke="#0096DB"/>
<line x1="12.6096" y1="5.68765" x2="16.6096" y2="0.687652" stroke="#0096DB"/>
<line x1="48.6096" y1="5.68765" x2="52.6096" y2="0.687652" stroke="#0096DB"/>
<line x1="78.6096" y1="5.68765" x2="82.6096" y2="0.687652" stroke="#0096DB"/>
<line x1="30.6096" y1="5.68765" x2="34.6096" y2="0.687652" stroke="#0096DB"/>
<line x1="66.6096" y1="5.68765" x2="70.6096" y2="0.687652" stroke="#0096DB"/>
<line x1="96.6096" y1="5.68765" x2="100.61" y2="0.687652" stroke="#0096DB"/>
<line x1="6.60957" y1="5.68765" x2="10.6096" y2="0.687652" stroke="#0096DB"/>
<line x1="42.6096" y1="5.68765" x2="46.6096" y2="0.687652" stroke="#0096DB"/>
<line x1="72.6096" y1="5.68765" x2="76.6096" y2="0.687652" stroke="#0096DB"/>
<line x1="24.6096" y1="5.68765" x2="28.6096" y2="0.687652" stroke="#0096DB"/>
<line x1="60.6096" y1="5.68765" x2="64.6096" y2="0.687652" stroke="#0096DB"/>
<line x1="90.6096" y1="5.68765" x2="94.6096" y2="0.687652" stroke="#0096DB"/>
<line x1="15.6096" y1="5.68765" x2="19.6096" y2="0.687652" stroke="#0096DB"/>
<line x1="51.6096" y1="5.68765" x2="55.6096" y2="0.687652" stroke="#0096DB"/>
<line x1="81.6096" y1="5.68765" x2="85.6096" y2="0.687652" stroke="#0096DB"/>
<line x1="33.6096" y1="5.68765" x2="37.6096" y2="0.687652" stroke="#0096DB"/>
<line x1="69.6096" y1="5.68765" x2="73.6096" y2="0.687652" stroke="#0096DB"/>
<line x1="99.6096" y1="5.68765" x2="103.61" y2="0.687652" stroke="#0096DB"/>
</svg>
