<svg width="416" height="24" viewBox="0 0 416 24" fill="none" xmlns="http://www.w3.org/2000/svg">
<line x1="2.04783" y1="22.4383" x2="18.0478" y2="2.43826" stroke="#0096DB" stroke-width="5"/>
<line x1="146.048" y1="22.4383" x2="162.048" y2="2.43826" stroke="#0096DB" stroke-width="5"/>
<line x1="74.0478" y1="22.4383" x2="90.0478" y2="2.43826" stroke="#0096DB" stroke-width="5"/>
<line x1="218.048" y1="22.4383" x2="234.048" y2="2.43826" stroke="#0096DB" stroke-width="5"/>
<line x1="338.048" y1="22.4383" x2="354.048" y2="2.43826" stroke="#0096DB" stroke-width="5"/>
<line x1="38.0478" y1="22.4383" x2="54.0478" y2="2.43826" stroke="#0096DB" stroke-width="5"/>
<line x1="182.048" y1="22.4383" x2="198.048" y2="2.43826" stroke="#0096DB" stroke-width="5"/>
<line x1="302.048" y1="22.4383" x2="318.048" y2="2.43826" stroke="#0096DB" stroke-width="5"/>
<line x1="110.048" y1="22.4383" x2="126.048" y2="2.43826" stroke="#0096DB" stroke-width="5"/>
<line x1="254.048" y1="22.4383" x2="270.048" y2="2.43826" stroke="#0096DB" stroke-width="5"/>
<line x1="374.048" y1="22.4383" x2="390.048" y2="2.43826" stroke="#0096DB" stroke-width="5"/>
<line x1="14.0478" y1="22.4383" x2="30.0478" y2="2.43826" stroke="#0096DB" stroke-width="5"/>
<line x1="158.048" y1="22.4383" x2="174.048" y2="2.43826" stroke="#0096DB" stroke-width="5"/>
<line x1="278.048" y1="22.4383" x2="294.048" y2="2.43826" stroke="#0096DB" stroke-width="5"/>
<line x1="86.0478" y1="22.4383" x2="102.048" y2="2.43826" stroke="#0096DB" stroke-width="5"/>
<line x1="230.048" y1="22.4383" x2="246.048" y2="2.43826" stroke="#0096DB" stroke-width="5"/>
<line x1="350.048" y1="22.4383" x2="366.048" y2="2.43826" stroke="#0096DB" stroke-width="5"/>
<line x1="50.0478" y1="22.4383" x2="66.0478" y2="2.43826" stroke="#0096DB" stroke-width="5"/>
<line x1="194.048" y1="22.4383" x2="210.048" y2="2.43826" stroke="#0096DB" stroke-width="5"/>
<line x1="314.048" y1="22.4383" x2="330.048" y2="2.43826" stroke="#0096DB" stroke-width="5"/>
<line x1="122.048" y1="22.4383" x2="138.048" y2="2.43826" stroke="#0096DB" stroke-width="5"/>
<line x1="266.048" y1="22.4383" x2="282.048" y2="2.43826" stroke="#0096DB" stroke-width="5"/>
<line x1="386.048" y1="22.4383" x2="402.048" y2="2.43826" stroke="#0096DB" stroke-width="5"/>
<line x1="26.0478" y1="22.4383" x2="42.0478" y2="2.43826" stroke="#0096DB" stroke-width="5"/>
<line x1="170.048" y1="22.4383" x2="186.048" y2="2.43826" stroke="#0096DB" stroke-width="5"/>
<line x1="290.048" y1="22.4383" x2="306.048" y2="2.43826" stroke="#0096DB" stroke-width="5"/>
<line x1="98.0478" y1="22.4383" x2="114.048" y2="2.43826" stroke="#0096DB" stroke-width="5"/>
<line x1="242.048" y1="22.4383" x2="258.048" y2="2.43826" stroke="#0096DB" stroke-width="5"/>
<line x1="362.048" y1="22.4383" x2="378.048" y2="2.43826" stroke="#0096DB" stroke-width="5"/>
<line x1="62.0478" y1="22.4383" x2="78.0478" y2="2.43826" stroke="#0096DB" stroke-width="5"/>
<line x1="206.048" y1="22.4383" x2="222.048" y2="2.43826" stroke="#0096DB" stroke-width="5"/>
<line x1="326.048" y1="22.4383" x2="342.048" y2="2.43826" stroke="#0096DB" stroke-width="5"/>
<line x1="134.048" y1="22.4383" x2="150.048" y2="2.43826" stroke="#0096DB" stroke-width="5"/>
<line x1="278.048" y1="22.4383" x2="294.048" y2="2.43826" stroke="#0096DB" stroke-width="5"/>
<line x1="398.048" y1="22.4383" x2="414.048" y2="2.43826" stroke="#0096DB" stroke-width="5"/>
</svg>
