<svg width="23" height="23" viewBox="0 0 23 23" fill="none" xmlns="http://www.w3.org/2000/svg">
<path d="M10.0676 13.6545L13.8085 11.5L10.0676 9.34558V13.6545Z" fill="white"/>
<path d="M21.3412 0H1.65879C0.742559 0 0 0.742603 0 1.65879V21.3412C0 22.2574 0.742603 23 1.65879 23H21.3412C22.2574 23 23 22.2574 23 21.3412V1.65879C23 0.742559 22.2574 0 21.3412 0ZM18.6857 11.5118C18.6857 11.5118 18.6857 13.844 18.3899 14.9686C18.2241 15.5842 17.7387 16.0696 17.1231 16.2352C15.9986 16.5312 11.5 16.5312 11.5 16.5312C11.5 16.5312 7.01325 16.5312 5.87686 16.2234C5.26129 16.0578 4.77591 15.5723 4.61011 14.9567C4.31407 13.844 4.31407 11.5 4.31407 11.5C4.31407 11.5 4.31407 9.16793 4.61011 8.04326C4.77578 7.42774 5.27306 6.93041 5.8769 6.76478C7.00143 6.46875 11.5 6.46875 11.5 6.46875C11.5 6.46875 15.9985 6.46875 17.1231 6.77656C17.7387 6.94218 18.2241 7.42774 18.3899 8.04331C18.6977 9.16793 18.6857 11.5118 18.6857 11.5118Z" fill="white"/>
<path d="M0.5 22.5V0.5H22.5V22.5H0.5Z" stroke="white"/>
</svg>
